<?xml version="1.0" standalone="no"?><!DOCTYPE svg PUBLIC "-//W3C//DTD SVG 1.1//EN" "http://www.w3.org/Graphics/SVG/1.1/DTD/svg11.dtd"><svg t="1727710013422" class="icon" viewBox="0 0 1024 1024" version="1.1" xmlns="http://www.w3.org/2000/svg" p-id="2604" xmlns:xlink="http://www.w3.org/1999/xlink" width="200" height="200"><path d="M511.371087 1022.750236c281.962835 0 511.37915-229.408252 511.379149-511.379149C1022.750236 229.408252 793.341984 0 511.371087 0 229.408252 0 0 229.408252 0 511.371087s229.408252 511.37915 511.371087 511.379149z m0-971.655055c253.814929 0 460.283969 206.469039 460.283968 460.275906 0 253.814929-206.469039 460.283969-460.283968 460.283968-253.806866 0-460.275906-206.469039-460.275906-460.283968 0-253.806866 206.469039-460.275906 460.275906-460.275906z m-125.540788 399.795402l100.102047-100.102048v382.484158a25.640315 25.640315 0 0 0 25.648378 25.656441 25.640315 25.640315 0 0 0 25.656441-25.656441V350.998173l100.102048 100.102047a25.398425 25.398425 0 0 0 18.141732 7.506646c6.676157 0 13.142677-2.499528 18.141732-7.498583a25.430677 25.430677 0 0 0 0-36.081889L529.94822 271.319685a25.430677 25.430677 0 0 0-36.081889 0L350.159622 415.026394a25.430677 25.430677 0 0 0 0 36.073826c9.385323 9.804598 25.656441 9.804598 35.662614-0.209637z" fill="#8a8a8a" p-id="2605"></path></svg>