<?xml version="1.0" standalone="no"?><!DOCTYPE svg PUBLIC "-//W3C//DTD SVG 1.1//EN" "http://www.w3.org/Graphics/SVG/1.1/DTD/svg11.dtd"><svg t="1727288007183" class="icon" viewBox="0 0 1024 1024" version="1.1" xmlns="http://www.w3.org/2000/svg" p-id="3167" xmlns:xlink="http://www.w3.org/1999/xlink" width="200" height="200"><path d="M901.63125 926.725c0 12.8-5.125 25.0875-14.3375 34.3-9.225 9.2125-21.5 14.3375-34.3125 14.3375H170.49375c-12.8 0-25.6-5.125-34.3-14.3375-9.2125-9.225-14.3375-21.5-14.3375-34.3V48.6375c0-12.8 5.1125-25.6 14.3375-34.3C144.89375 5.125 157.70625 0 170.49375 0H589.31875c12.8 0 25.6 5.125 34.8125 14.3375l263.675 263.6875c9.2125 9.2125 14.3375 21.5 14.3375 34.8125v613.8875h-0.5125z" fill="#EBECF0" p-id="3168"></path><path d="M901.63125 926.725v48.6375c0 12.8-5.125 25.6-14.3375 34.3-9.225 9.225-21.5 14.3375-34.3125 14.3375H170.49375c-27.1375 0-48.6375-22.0125-48.6375-48.6375v-48.6375c0 12.8 5.1125 25.0875 14.3375 34.3 9.2125 9.2125 21.5 14.3375 34.3 14.3375h682.5c27.1375 0 48.6375-22.0125 48.6375-48.6375z" fill="#C1C7D0" p-id="3169"></path><path d="M121.85625 536.575v-97.8L24.06875 536.575h97.7875z m779.775 0l1.025-97.8 97.275 97.8h-98.3z" fill="#D3AB05" p-id="3170"></path><path d="M901.63125 312.8375v6.65H637.94375c-27.1375 0-48.6375-22.0125-48.6375-48.6375V0c12.8 0 25.6 5.125 34.8125 14.3375L888.31875 278.025c8.7 9.2125 13.825 21.5 13.3125 34.8125z" fill="#C1C7D0" p-id="3171"></path><path d="M24.58125 536.575v243.2c0 13.3125 5.1125 25.6 14.3375 34.8125 8.7 9.225 21.5 14.3375 34.3 14.3375h877.575c26.625 0 48.6375-21.5 48.6375-48.6375V536.575H24.58125z m404.4375 262.85H205.90625v-45.4125l126.7875-130.875h-120.6375v-51.975h212.9v50.2375l-124.325 126.05h136.3625l-7.975 51.975z m114.0125 0h-74.275V571.1625h74.275v228.2625z m182.275-77.4375h-54.775v77.4375h-73.9125V571.1625h128.375c54.875 0 93.1 27.3125 93.1 74.4125s-36.0375 76.4125-92.8125 76.4125z" fill="#EDC314" p-id="3172"></path><path d="M713.44375 621.125h-42.9125v50.6875h42.9125c20.0375 0 31.625-8.125 31.625-25.6125 0-14.6-8.8125-25.075-31.625-25.075z" fill="#EDC314" p-id="3173"></path><path d="M424.95625 621.4v-50.2375H212.05625v51.9875h120.6375l-126.7875 130.875v45.4h223.1125l7.975-51.975H300.63125l124.325-126.05zM468.75625 571.1625h74.275v228.2625h-74.275zM725.00625 571.1625h-128.375v228.2625h73.9125v-77.4375H725.31875c56.775 0 92.8125-27.875 92.8125-76.4125s-38.2375-74.4125-93.1-74.4125z m-11.5625 100.65h-42.9125V621.125h42.9125c22.825 0 31.625 10.4875 31.625 25.075 0 17.4875-11.6 25.6125-31.625 25.6125z" fill="#FFFFFF" p-id="3174"></path></svg>